<svg xmlns="http://www.w3.org/2000/svg" fill="#fff" viewBox="0 0 30.834 40">
    <g id="brand-logo">
        <path fill="#95E6E2"
            d="M15.788 27.687c-2.623 0-4.42.503-4.672.575v3.665c0 1.365.432 2.587.432 2.587.862 2.551 3.988 5.102 4.204 5.282.215-.18 3.341-2.695 4.204-5.282 0 0 .431-1.222.431-2.587v-3.665c-.18-.072-1.976-.575-4.599-.575Zm.072 3.234c-.647 0-1.15-.539-1.15-1.15 0-.647.503-1.15 1.15-1.15.646 0 1.149.539 1.149 1.15 0 .611-.539 1.15-1.149 1.15Z" />
        <path fill="#0E232D"
            d="M15.393.306C6.517.306.301 5.013.301 12.416c0 7.294 6.36 12.612 15.092 12.612.395 0 .79-.036 1.185-.036v-3.737c-.395.036-.79.036-1.185.036-5.462 0-11.391-2.767-11.391-8.839 0-6.109 5.713-8.516 11.391-8.516 8.408 0 11.39 4.419 11.39 8.516 0 5.174-4.096 7.941-8.803 8.659v3.809c7.474-.898 12.504-5.749 12.504-12.433 0-7.474-6.216-12.181-15.091-12.181Z" />
    </g>
    <g id="brand-name">
        <text x="5.5" y="15.5" fill="#95E6E2" font-family="system-ui,sans-serif" font-size="7.5" font-weight="700"
            style="text-transform:uppercase;white-space:pre">FIGO</text>
    </g>
</svg>