<svg xmlns="http://www.w3.org/2000/svg" fill="none" viewBox="0 0 100 40">
    <g clip-path="url(#a)">
        <path fill="#95E6E2"
            d="M85.3035 27.3805c-2.623 0-4.4196.5031-4.6712.5749v3.6652c0 1.3654.4312 2.5871.4312 2.5871.8624 2.5512 3.9885 5.1024 4.2041 5.2821.2156-.1797 3.3417-2.695 4.2041-5.2821 0 0 .4312-1.2217.4312-2.5871v-3.6652c-.1797-.0718-1.9763-.5749-4.5994-.5749Zm.0719 3.2339c-.6468 0-1.1498-.5389-1.1498-1.1498 0-.6468.503-1.1498 1.1498-1.1498.6468 0 1.1498.539 1.1498 1.1498 0 .6109-.5389 1.1498-1.1498 1.1498Z" />
        <path fill="#0E232D"
            d="M31.9081.790512h-3.9525V24.0388h3.9525V.790512ZM0 24.0388h4.0963v-8.4082h15.6306v-3.5573H4.0963V4.31189h19.152V.790512H0V24.0388Zm85.3756 5.3899c.3952 0 .6827-.3234.7186-.7187v-7.1865h-1.4013v7.2584c0 .3593.3234.6468.6827.6468Z" />
        <path fill="#0E232D"
            d="M84.9085 0c-8.8753 0-15.0916 4.70715-15.0916 12.1092 0 7.2943 6.36 12.6123 15.0916 12.6123.3953 0 .7905-.0359 1.1858-.0359v-3.737c-.3953.036-.7905.036-1.1858.036-5.4617 0-11.3906-2.7668-11.3906-8.8394 0-6.10855 5.7133-8.51602 11.3906-8.51602 8.4082 0 11.3906 4.41969 11.3906 8.51602 0 5.1742-4.0963 7.941-8.8034 8.6597v3.8088C94.9696 23.7154 100 18.8645 100 12.1811 100 4.70715 93.7838 0 84.9085 0ZM49.9103 12.0374v3.5573h12.0374v3.0183c-1.7248.8624-5.7492 2.6231-10.636 2.5871-5.9648-.0718-10.7079-3.3057-10.7079-9.3065 0-4.81491 3.8088-8.12069 9.9892-8.12069 4.24 0 9.3784 1.04204 10.5642 4.85088h4.2759C63.924 2.26374 56.6297 0 50.593 0c-8.3004 0-14.0137 4.92275-14.0137 11.8936 0 8.3004 6.5757 12.9717 14.6964 13.0435h.2156c7.474 0 13.0435-3.4854 13.295-3.6292l.8624-.5389v-8.7316H49.9103Z" />
    </g>
    <defs>
        <clipPath id="a">
            <path fill="#fff" d="M0 0h100v39.4538H0z" />
        </clipPath>
    </defs>
</svg>